<?xml version="1.0" encoding="utf-8"?>
<!-- Generator: Adobe Illustrator 21.0.2, SVG Export Plug-In . SVG Version: 6.00 Build 0)  -->
<svg version="1.1" id="Layer_1" xmlns="http://www.w3.org/2000/svg" xmlns:xlink="http://www.w3.org/1999/xlink" x="0px" y="0px"
	 viewBox="0 0 145 134" style="enable-background:new 0 0 145 134;" xml:space="preserve">
<style type="text/css">
	.st0{fill:#FFFFFF;}
</style>
<g>
	<path class="st0" d="M10.9,100.4c-1-0.8-2.4-1.3-3.6-1.3c-1.5,0-2.3,0.7-2.3,1.5c0,2.9,9,1.4,9,7.4c0,3.6-3.3,5.4-6.9,5.4
		c-3.6,0-6-1.7-7.3-3.1l2.8-2.6c1.3,1.4,3,2.1,4.6,2.1c1.2,0,2.6-0.4,2.6-1.5c0-2.7-9-1.6-9-7.4c0-3.4,3.2-5.3,6.5-5.3
		c2.1,0,4.4,0.8,5.7,1.9L10.9,100.4z"/>
	<path class="st0" d="M31,102.7v10.1h-4v-9.6c0-2.9-1.4-4.1-3.2-4.1c-2.4,0-3.7,1.9-3.7,5.1v8.6h-4V86.7h4v10.7c1-1,2.5-1.9,4.8-1.9
		C28.7,95.5,31,98.1,31,102.7z"/>
	<path class="st0" d="M51.1,104.4c0,4.9-3.9,8.9-8.9,8.9c-5,0-8.9-4-8.9-8.9c0-4.9,3.9-8.9,8.9-8.9C47.2,95.5,51.1,99.5,51.1,104.4z
		 M37.2,104.4c0,2.9,2.2,5.2,5,5.2c2.8,0,5-2.3,5-5.2c0-2.9-2.2-5.2-5-5.2C39.3,99.3,37.2,101.6,37.2,104.4z"/>
	<path class="st0" d="M63.1,95.9l-1.1,4c-0.5-0.2-1.1-0.4-1.9-0.4c-1.9,0-3,1.3-3,5v8.2h-4V96h4v1.4c0.6-0.9,1.8-1.9,3.7-1.9
		C61.7,95.5,62.4,95.6,63.1,95.9z"/>
	<path class="st0" d="M76.1,96v3.8h-4.4v6.9c0,0.8,0.2,1.7,0.7,2.2c0.5,0.5,1.1,0.7,1.9,0.7c0.8,0,1.5-0.3,2.2-0.7l1.6,3.4
		c-1,0.6-2.3,1.1-4.2,1.1c-2.4,0-3.9-0.9-5-2.1c-1-1.2-1.3-3-1.3-4.4v-6.9h-3.2V96h3.2v-5.9h4V96H76.1z"/>
	<path class="st0" d="M77.8,99.8V96h2.8v-3.4c0-3.1,1.8-6.5,6.3-6.5c1.9,0,3.2,0.6,4.2,1.1l-1.6,3.4c-0.8-0.4-1.4-0.7-2.2-0.7
		c-1.7,0-2.6,1.4-2.6,2.9V96h4.8v3.8h-4.8v12.9h-4V99.8H77.8z"/>
	<path class="st0" d="M107.6,104.4c0,4.9-3.9,8.9-8.9,8.9c-5,0-8.9-4-8.9-8.9c0-4.9,3.9-8.9,8.9-8.9
		C103.7,95.5,107.6,99.5,107.6,104.4z M93.7,104.4c0,2.9,2.2,5.2,5,5.2s5-2.3,5-5.2c0-2.9-2.2-5.2-5-5.2S93.7,101.6,93.7,104.4z"/>
	<path class="st0" d="M119.7,95.9l-1.1,4c-0.5-0.2-1.1-0.4-1.9-0.4c-1.9,0-3,1.3-3,5v8.2h-4V96h4v1.4c0.6-0.9,1.8-1.9,3.7-1.9
		C118.2,95.5,118.9,95.6,119.7,95.9z"/>
	<path class="st0" d="M145,102.7v10.1h-4v-9.6c0-2.8-0.9-4.1-2.7-4.1c-1.9,0-3.1,1.5-3.1,4.2v9.4h-4v-10c0-2.5-1.1-3.6-2.8-3.6
		c-1.9,0-3,1.5-3,4.2v9.4h-4V96h4v1.5c0.8-1.1,2.2-1.9,3.9-1.9c1.7,0,3.5,0.8,4.4,2.6c1.1-1.7,3-2.6,5.2-2.6
		C142.6,95.5,145,98.1,145,102.7z"/>
</g>
<path class="st0" d="M78.5,80c-5.2,0-9.4-4.2-9.4-9.4V9.2c0-1.6-1.3-2.9-2.9-2.9s-2.9,1.3-2.9,2.9v49.1c0,5.1-4.1,9.2-9.2,9.2
	s-9.2-4.1-9.2-9.2V33.1c0-1.6-1.3-2.9-2.9-2.9s-2.9,1.3-2.9,2.9v16c0,1.7-1.4,3.1-3.1,3.1s-3.1-1.4-3.1-3.1v-16
	c0-5.1,4.1-9.2,9.2-9.2s9.2,4.1,9.2,9.2v25.2c0,1.6,1.3,2.9,2.9,2.9s2.9-1.3,2.9-2.9V9.2C57,4.1,61.1,0,66.2,0s9.2,4.1,9.2,9.2v61.4
	c0,1.7,1.4,3.1,3.1,3.1c1.7,0,3.1-1.4,3.1-3.1V21c0-5.1,4.1-9.2,9.2-9.2c5.1,0,9.2,4.1,9.2,9.2v25.2c0,1.6,1.3,2.9,2.9,2.9
	c1.6,0,2.9-1.3,2.9-2.9V29.6c0-1.7,1.4-3.1,3.1-3.1s3.1,1.4,3.1,3.1v16.5c0,5.1-4.1,9.2-9.2,9.2c-5.1,0-9.2-4.1-9.2-9.2V21
	c0-1.6-1.3-2.9-2.9-2.9s-2.9,1.3-2.9,2.9v49.6C87.9,75.8,83.7,80,78.5,80z"/>
<g>
	<path class="st0" d="M20.8,130.6h-0.9v-8.3h0.9V130.6z"/>
	<path class="st0" d="M27.2,125.8c0.3,0.4,0.5,0.9,0.5,1.6v3.2h-0.9v-3c0-1.2-0.6-1.6-1.3-1.6c-0.9,0-1.6,0.8-1.6,2.2v2.4H23v-5.3
		h0.9v0.8c0.3-0.5,0.9-1,1.8-1C26.3,125.1,26.8,125.4,27.2,125.8z"/>
	<path class="st0" d="M29.2,128c0-1.5,1-2.8,2.7-2.8c0.9,0,1.6,0.4,2,0.9v-3.7h0.9v8.3h-0.9v-0.7c-0.4,0.4-1,0.9-2,0.9
		C30.3,130.8,29.2,129.5,29.2,128z M32,126c-1,0-1.9,0.8-1.9,2s0.9,2,1.8,2c1,0,1.9-0.9,1.9-2C33.9,126.7,33,126,32,126z"/>
	<path class="st0" d="M37.2,122.2c0.4,0,0.7,0.3,0.7,0.7c0,0.4-0.3,0.7-0.7,0.7c-0.4,0-0.7-0.3-0.7-0.7
		C36.5,122.5,36.8,122.2,37.2,122.2z M36.8,130.6v-5.3h0.9v5.3H36.8z"/>
	<path class="st0" d="M44.3,129.9c-0.5,0.6-1.4,0.9-2.2,0.9c-1.7,0-2.9-1.2-2.9-2.8c0-1.6,1.1-2.8,2.7-2.8c1.4,0,2.8,0.9,2.5,3.3
		h-4.2c0.2,0.9,1,1.6,2,1.6c0.6,0,1.1-0.2,1.5-0.6L44.3,129.9z M40.2,127.6h3.3c0.1-0.8-0.6-1.6-1.6-1.6
		C41,126,40.3,126.6,40.2,127.6z"/>
	<path class="st0" d="M56.5,122.3h0.9v8.3h-0.9v-6.5l-2.7,4.3H53l-2.7-4.3v6.5h-0.9v-8.3h0.9l3.1,4.9L56.5,122.3z"/>
	<path class="st0" d="M60,122.2c0.4,0,0.7,0.3,0.7,0.7c0,0.4-0.3,0.7-0.7,0.7c-0.4,0-0.7-0.3-0.7-0.7
		C59.4,122.5,59.7,122.2,60,122.2z M59.6,130.6v-5.3h0.9v5.3H59.6z"/>
	<path class="st0" d="M66.9,129.9c-0.5,0.6-1.2,0.9-2,0.9c-1.7,0-2.8-1.3-2.8-2.8c0-1.6,1.3-2.8,2.8-2.8c0.8,0,1.4,0.3,1.9,0.8
		l-0.6,0.7c-0.3-0.4-0.8-0.6-1.3-0.6c-1.1,0-1.9,0.8-1.9,2c0,1.1,0.9,2,1.9,2c0.6,0,1-0.2,1.4-0.6L66.9,129.9z"/>
	<path class="st0" d="M71.4,125.2l-0.3,1c-0.1-0.1-0.3-0.1-0.6-0.1c-1,0-1.4,0.9-1.4,2.2v2.4h-0.9v-5.3h0.9v0.8c0.3-0.4,0.8-1,1.7-1
		C71.1,125.1,71.3,125.2,71.4,125.2z"/>
	<path class="st0" d="M77.8,128c0,1.6-1.2,2.8-2.8,2.8s-2.8-1.3-2.8-2.8s1.2-2.8,2.8-2.8S77.8,126.4,77.8,128z M73,128
		c0,1.1,0.9,2,2,2c1.1,0,1.9-0.9,1.9-2c0-1.1-0.8-2-1.9-2C73.9,126,73,126.9,73,128z"/>
	<path class="st0" d="M80.3,129.9v0.7h-0.9v-8.3h0.9v3.7c0.4-0.5,1.1-0.9,2-0.9c1.6,0,2.7,1.3,2.7,2.8c0,1.5-1.1,2.8-2.7,2.8
		C81.4,130.8,80.7,130.4,80.3,129.9z M82.2,130c1,0,1.9-0.8,1.9-2s-0.9-2-1.9-2s-1.9,0.8-1.9,2C80.3,129.1,81.2,130,82.2,130z"/>
	<path class="st0" d="M87.5,128.8c0,0.5,0,0.8,0.3,1c0.1,0.1,0.3,0.1,0.4,0.1c0.2,0,0.4-0.1,0.6-0.2l0.4,0.8c0,0-0.4,0.3-1,0.3
		c-0.5,0-0.9-0.2-1.1-0.4c-0.4-0.4-0.4-1-0.4-1.6v-6.5h0.9V128.8z"/>
	<path class="st0" d="M95.5,128c0,1.6-1.2,2.8-2.8,2.8s-2.8-1.3-2.8-2.8s1.2-2.8,2.8-2.8S95.5,126.4,95.5,128z M90.8,128
		c0,1.1,0.9,2,2,2c1.1,0,1.9-0.9,1.9-2c0-1.1-0.8-2-1.9-2C91.6,126,90.8,126.9,90.8,128z"/>
	<path class="st0" d="M96.8,128c0-1.5,1-2.8,2.7-2.8c0.9,0,1.6,0.4,2,0.9v-0.7h0.9v5.5c0,0.7-0.2,1.4-0.6,1.9
		c-0.5,0.6-1.3,0.9-2.1,0.9c-1.3,0-2.3-0.8-2.7-1.9l0.9-0.3c0.3,0.8,0.8,1.4,1.8,1.4c1.4,0,1.8-1,1.8-2v-0.9c-0.4,0.4-1,0.9-2,0.9
		C97.9,130.8,96.8,129.5,96.8,128z M99.6,126c-1,0-1.9,0.8-1.9,2s0.9,2,1.8,2c1,0,1.9-0.9,1.9-2C101.5,126.7,100.6,126,99.6,126z"/>
	<path class="st0" d="M103.9,128c0-1.5,1-2.8,2.7-2.8c0.9,0,1.6,0.4,2,0.9v-0.7h0.9v5.5c0,0.7-0.2,1.4-0.6,1.9
		c-0.5,0.6-1.3,0.9-2.1,0.9c-1.3,0-2.3-0.8-2.7-1.9l0.9-0.3c0.3,0.8,0.8,1.4,1.8,1.4c1.4,0,1.8-1,1.8-2v-0.9c-0.4,0.4-1,0.9-2,0.9
		C105,130.8,103.9,129.5,103.9,128z M106.7,126c-1,0-1.9,0.8-1.9,2s0.9,2,1.8,2c1,0,1.9-0.9,1.9-2C108.6,126.7,107.7,126,106.7,126z
		"/>
	<path class="st0" d="M111.8,122.2c0.4,0,0.7,0.3,0.7,0.7c0,0.4-0.3,0.7-0.7,0.7c-0.4,0-0.7-0.3-0.7-0.7
		C111.1,122.5,111.4,122.2,111.8,122.2z M111.4,130.6v-5.3h0.9v5.3H111.4z"/>
	<path class="st0" d="M118.4,125.8c0.3,0.4,0.5,0.9,0.5,1.6v3.2H118v-3c0-1.2-0.6-1.6-1.3-1.6c-0.9,0-1.6,0.8-1.6,2.2v2.4h-0.9v-5.3
		h0.9v0.8c0.3-0.5,0.9-1,1.8-1C117.5,125.1,118.1,125.4,118.4,125.8z"/>
	<path class="st0" d="M120.5,128c0-1.5,1-2.8,2.7-2.8c0.9,0,1.6,0.4,2,0.9v-0.7h0.9v5.5c0,0.7-0.2,1.4-0.6,1.9
		c-0.5,0.6-1.3,0.9-2.1,0.9c-1.3,0-2.3-0.8-2.7-1.9l0.9-0.3c0.3,0.8,0.8,1.4,1.8,1.4c1.4,0,1.8-1,1.8-2v-0.9c-0.4,0.4-1,0.9-2,0.9
		C121.5,130.8,120.5,129.5,120.5,128z M123.3,126c-1,0-1.9,0.8-1.9,2s0.9,2,1.8,2c1,0,1.9-0.9,1.9-2
		C125.2,126.7,124.3,126,123.3,126z"/>
</g>
</svg>
